<svg width="102" height="24" viewBox="0 0 102 24" fill="none" xmlns="http://www.w3.org/2000/svg">
<path d="M38.2059 0.66473C37.6295 1.30516 37.5974 1.94559 37.5974 9.72679C37.5974 18.7248 37.5974 18.7248 35.8363 19.9416C34.9397 20.55 33.5307 20.6461 32.6021 20.1658C31.7375 19.6855 30.7128 17.54 30.7128 16.1631C30.7128 15.1704 30.8089 15.0423 31.5134 15.0423C31.9617 15.0423 32.8583 14.8182 33.5307 14.562C37.0531 13.089 37.6935 9.98296 34.8756 8.06168C33.947 7.45327 33.4667 7.32518 32.0898 7.42125C28.5354 7.70944 26.7422 10.6234 26.9023 15.6828C26.9663 17.1878 26.8703 18.6287 26.7102 18.9169C25.8456 20.2618 23.7322 20.8702 22.3552 20.1658C21.4907 19.6855 20.466 17.54 20.466 16.1631C20.466 15.1704 20.562 15.0423 21.2665 15.0423C21.7148 15.0423 22.6114 14.8182 23.2839 14.562C26.8062 13.089 27.4467 9.98296 24.6288 8.06168C23.7001 7.45327 23.2198 7.32518 21.8429 7.42125C18.5447 7.70944 16.6234 10.4633 16.6234 14.9783C16.6234 17.9243 17.1358 19.4613 18.5127 20.8382C20.8182 23.1758 24.3086 23.3039 27.1264 21.2225L28.1511 20.454L29.1438 21.2545C31.4814 23.2398 34.8436 23.1758 37.5334 21.0624C38.3019 20.454 38.7182 20.2939 38.7182 20.5821C38.7182 21.3506 40.2232 22.4713 41.5681 22.6314C42.4967 22.7595 43.1371 22.6314 43.9377 22.1831C44.9944 21.5427 45.0264 21.5427 46.2752 22.1831C47.8443 22.9837 51.5908 23.2719 53.32 22.7275C54.0244 22.5033 55.0491 21.959 55.6255 21.5427L56.7142 20.7422L57.5468 21.5107C58.7636 22.6314 59.404 22.7915 60.6208 22.2792C61.4214 21.927 61.9337 21.3506 62.6702 19.8456L63.6629 17.8602L63.887 19.2372C64.2713 21.5107 66.3527 23.1117 68.274 22.5994C68.6902 22.5033 69.4267 22.023 69.9391 21.5747C70.5155 21.0624 70.9317 20.8702 70.9958 21.0944C71.1879 21.6708 73.4935 22.7275 74.5502 22.7275C76.2793 22.7275 76.8557 21.5107 78.1045 15.3626C79.1292 10.2712 79.2253 9.1504 78.5849 8.542C77.9765 7.90157 77.1759 7.83753 77.0158 8.38189C76.9518 8.60604 76.5995 10.5273 76.2473 12.6407C75.4147 17.3799 74.6462 20.0377 74.2299 19.6214C74.0698 19.4613 73.7496 17.1878 73.4935 14.6261C73.0452 9.47062 72.789 8.86221 70.9317 8.38189C69.4908 7.99763 68.7223 8.25381 68.9464 9.08636C69.0425 9.4386 69.3627 11.7121 69.6509 14.1457L70.1953 18.5007L69.4908 19.4933C68.5942 20.7101 67.6335 20.8062 67.3453 19.6534C67.2173 19.2051 67.2493 17.1558 67.3774 15.1064C67.5375 13.025 67.6335 11.0076 67.6335 10.5593C67.5695 9.11838 64.9117 7.58136 64.4634 8.73413C64.3353 9.08636 63.9511 8.9903 62.7663 8.41391C60.7489 7.38923 59.2759 7.6454 57.7389 9.21445C56.2659 10.7195 55.6575 12.8969 55.7216 16.3232C55.7856 19.013 55.7856 19.013 54.7289 19.9096C54.1205 20.3899 53.6082 20.7422 53.5441 20.6781C53.4801 20.6461 53.6082 20.1338 53.8003 19.5574C54.3767 17.9243 53.9604 15.9069 52.3593 12.5767C50.8863 9.56668 50.7582 8.57402 51.6869 8.18976C52.3273 7.96561 52.2953 7.16508 51.6549 6.90891C50.7582 6.55667 48.4527 6.71678 47.8443 7.16508C47.428 7.45327 47.1719 8.22178 47.0117 9.63073C46.6275 12.6728 45.5388 15.971 44.5461 16.8676C43.9057 17.444 43.7135 17.9563 43.7135 18.981C43.6815 20.1978 43.6175 20.3259 42.881 20.3259C42.2085 20.3259 42.0164 20.1017 41.6962 18.8849C41.1198 16.6114 41.2159 14.7542 42.0804 12.2245C43.9697 6.62071 43.8096 2.74612 41.5361 0.632708C40.6075 -0.231871 39.0064 -0.19985 38.2059 0.66473ZM41.44 5.01964C41.6642 5.98029 40.9917 10.2391 40.5754 10.2391C40.2872 10.2391 40.2232 5.43592 40.5114 4.66741C40.7996 3.89889 41.1838 4.059 41.44 5.01964ZM23.476 10.015C23.7322 10.7195 23.6681 11.0717 23.1558 11.7762C22.4833 12.6728 20.8823 13.6334 20.562 13.3452C20.466 13.2491 20.6581 12.4166 20.9463 11.552C21.8109 8.89423 22.8676 8.28583 23.476 10.015ZM33.7229 10.015C33.979 10.7195 33.915 11.0717 33.4026 11.7762C32.7302 12.6728 31.1291 13.6334 30.8089 13.3452C30.7128 13.2491 30.905 12.4166 31.1932 11.552C32.0577 8.89423 33.1144 8.28583 33.7229 10.015ZM63.2146 10.5593C63.5028 10.8796 63.791 11.52 63.791 11.9363C63.791 13.6014 61.7096 18.6287 60.6849 19.4933C59.0198 20.9023 59.2759 13.3452 61.0051 10.7195C61.6455 9.75881 62.4461 9.69477 63.2146 10.5593ZM50.0858 17.444C50.8863 20.55 49.8296 21.6388 47.46 20.1658C46.8837 19.8135 46.4033 19.3652 46.4033 19.1411C46.4033 18.9169 46.7556 17.7962 47.1719 16.6434C47.6201 15.4906 48.0684 14.2738 48.1645 13.9216C48.3566 13.3452 48.4527 13.4413 48.9971 14.466C49.3173 15.1064 49.8296 16.4513 50.0858 17.444Z" fill="white"/>
<path d="M4.2955 1.24113C2.21411 1.7855 0.965274 2.52199 0.484952 3.48263C-0.187498 4.73147 -0.155476 5.21179 0.548995 6.10839L1.1574 6.81286L2.24613 6.01233C2.85454 5.56403 3.75114 4.9236 4.26348 4.60338L5.16008 4.027L4.96795 5.78818C4.48763 9.72681 4.42359 9.91894 3.78316 9.91894C3.04667 9.91894 2.47028 10.9436 2.75847 11.7442C2.85454 12.0644 3.23879 12.7048 3.55901 13.1531C4.03933 13.8896 4.10337 14.4019 3.94327 16.8996C3.81518 18.4687 3.81518 20.1338 3.94327 20.6141C4.23146 21.8309 5.25615 22.7275 6.37689 22.7275H7.30552L7.40158 18.949L7.49764 15.2025L9.77117 18.2445C12.4289 21.7989 12.9733 22.3433 14.5744 22.8876C15.9833 23.3679 17.4243 23.0157 17.9046 22.0871C18.3529 21.2225 18.3209 21.1905 17.2001 20.9663C16.4316 20.8062 15.2468 19.8456 12.8772 17.3479C11.052 15.4907 9.57904 13.8896 9.57904 13.7615C9.57904 13.6654 10.1874 13.2812 10.956 12.8969C14.03 11.3919 16.3035 8.57404 16.3035 6.17243C16.3035 4.4753 14.9266 2.74614 12.7812 1.81752C11.2121 1.11305 6.05668 0.760813 4.2955 1.24113ZM12.1087 3.61072C13.6137 4.82753 12.9413 7.74148 10.6357 9.95096C9.80319 10.7835 8.74648 11.6161 8.3302 11.8402C7.65775 12.1925 7.59371 12.1604 7.75382 11.6801C7.8819 11.3919 7.97797 9.37458 7.97797 7.19712V3.22646L8.87457 3.09838C9.99532 2.93827 11.5323 3.16242 12.1087 3.61072Z" fill="white"/>
<path d="M82.7483 7.8696C81.2113 8.67014 80.731 9.24652 80.0265 11.1038C79.29 13.025 79.1619 16.3553 79.7383 18.4046C80.4108 20.7742 83.1326 22.7275 85.8224 22.7275C86.8791 22.7275 88.6082 22.1512 89.6329 21.4467C90.4014 20.9023 90.4655 20.9023 91.0098 21.6388C91.3621 22.1191 91.9064 22.4073 92.4828 22.4073H93.3794L93.5395 19.7495C93.6676 18.0524 93.9558 16.5794 94.3721 15.5868L95.0766 14.0497L95.781 14.7222C96.1653 15.0744 97.0299 15.5227 97.6703 15.7148C100.232 16.5154 102.954 14.402 101.673 12.6408C101.225 12.0324 101.193 12.0324 100.52 12.897C99.6877 13.9216 98.727 14.0177 97.7664 13.0891L97.0299 12.4166L97.7023 11.1358C98.3748 9.88695 98.3748 9.85493 97.7664 9.05439C96.3574 7.16513 94.6603 7.67747 94.276 10.1431C93.8598 12.8009 93.6996 13.0571 93.4755 11.488C93.2513 9.6628 92.4828 8.44599 91.3621 8.18982C90.9138 8.06173 90.4655 8.02971 90.3694 8.12577C90.3054 8.18982 90.1453 10.4633 90.0812 13.1852C89.9852 15.875 89.761 18.3726 89.6009 18.7569C88.8964 20.1658 86.5268 20.9023 85.1179 20.1658C84.2533 19.6855 83.2286 17.5401 83.2286 16.1631C83.2286 15.1705 83.3247 15.0424 84.0292 15.0424C87.1032 15.0424 89.9852 11.9043 88.9285 9.69482C87.9358 7.64545 84.8938 6.74885 82.7483 7.8696ZM86.2387 10.015C86.4948 10.7195 86.4308 11.0717 85.9184 11.7762C85.246 12.6728 83.6449 13.6335 83.3247 13.3453C83.2286 13.2492 83.4208 12.4166 83.709 11.5521C84.5735 8.89429 85.6302 8.28588 86.2387 10.015Z" fill="white"/>
</svg>
